<?xml version="1.0" standalone="no"?>
<!DOCTYPE svg PUBLIC "-//W3C//DTD SVG 20010904//EN"
 "http://www.w3.org/TR/2001/REC-SVG-20010904/DTD/svg10.dtd">
<svg version="1.0" xmlns="http://www.w3.org/2000/svg"
 width="400.000000pt" height="400.000000pt" viewBox="0 0 400.000000 400.000000"
 preserveAspectRatio="xMidYMid meet">
<metadata>
Created by potrace 1.11, written by Peter Selinger 2001-2013
</metadata>
<g transform="translate(0.000000,400.000000) scale(0.100000,-0.100000)"
fill="#000000" stroke="none">
<path d="M2213 3228 l-102 -103 49 -55 c114 -126 183 -262 173 -338 -3 -21 -7
-39 -9 -41 -2 -2 -58 10 -126 27 -142 36 -349 74 -478 88 -171 18 -493 23
-630 10 -88 -8 -208 -25 -230 -31 -8 -2 -31 -7 -50 -10 -57 -10 -181 -54 -242
-87 -68 -36 -141 -107 -168 -163 -51 -106 -3 -231 118 -301 76 -45 163 -70
372 -109 150 -28 662 -28 835 0 74 12 92 15 130 21 170 26 421 116 529 190 21
15 28 12 147 -45 189 -92 297 -175 386 -296 98 -132 123 -258 72 -360 -28 -56
-114 -138 -138 -131 -9 3 -41 8 -71 11 -30 3 -66 8 -80 10 -76 11 -275 30
-409 40 -156 12 -226 14 -381 14 -197 0 -269 -7 -361 -34 -193 -56 -263 -209
-165 -358 72 -108 203 -168 424 -194 117 -13 427 -6 522 12 9 2 35 6 56 9 169
26 349 79 482 143 59 27 81 33 110 28 20 -3 51 -7 67 -9 59 -7 206 -46 238
-62 l32 -17 -60 -54 c-33 -30 -81 -67 -107 -81 -27 -15 -48 -31 -48 -35 0 -4
19 -43 41 -85 23 -42 53 -98 67 -124 14 -27 30 -48 34 -48 23 0 187 120 248
181 90 91 124 160 127 254 3 145 -89 247 -280 310 -43 14 -84 25 -92 25 -19 0
-19 0 10 52 79 142 79 345 0 525 -90 202 -303 403 -566 533 l-86 43 15 41 c19
56 18 189 -2 262 -25 85 -78 189 -144 277 -64 85 -137 167 -149 167 -5 0 -54
-46 -110 -102z m-628 -712 c50 -3 101 -8 114 -11 13 -2 49 -7 80 -10 31 -4 63
-8 71 -10 8 -3 31 -7 50 -10 19 -3 36 -8 38 -10 4 -4 -114 -31 -173 -39 -22
-3 -51 -8 -65 -11 -76 -13 -189 -19 -390 -20 -235 0 -319 6 -448 30 -42 8 -78
15 -79 15 -2 0 -3 4 -3 8 0 18 189 57 325 67 50 4 91 8 92 9 5 4 302 -2 388
-8z"/>
</g>
</svg>
